<svg version="1.1" id="Layer_1" xmlns="http://www.w3.org/2000/svg" xmlns:xlink="http://www.w3.org/1999/xlink" x="0px" y="0px"
	 width="100%" viewBox="0 0 376 549" enable-background="new 0 0 376 549" xml:space="preserve">
<path fill="#FEFEFE" opacity="1.000000" stroke="none" 
	d="
M1.000000,218.000000 
	C1.000000,145.333328 1.000000,73.166664 1.000000,1.000000 
	C126.333336,1.000000 251.666672,1.000000 377.000000,1.000000 
	C377.000000,184.000000 377.000000,367.000000 377.000000,550.000000 
	C251.666672,550.000000 126.333336,550.000000 1.000000,550.000000 
	C1.000000,439.500000 1.000000,329.000000 1.000000,218.000000 
M16.227488,161.049011 
	C21.825201,161.052734 27.422913,161.056473 33.902264,161.254913 
	C36.604733,161.143707 39.307198,161.032486 42.928772,161.005249 
	C49.491650,161.005249 56.054527,161.005249 63.895454,161.005249 
	C61.669498,173.576645 60.806236,186.208710 57.062092,197.919739 
	C50.104942,219.680511 41.522728,240.924759 33.509907,262.343964 
	C28.332758,276.183044 23.268646,290.032776 21.824213,305.290802 
	C21.843178,305.840332 21.862143,306.389862 21.549446,307.697693 
	C21.798056,315.822906 22.046665,323.948090 22.334671,332.015381 
	C22.334671,332.015381 22.222792,332.156738 21.967239,332.849609 
	C23.431011,342.684998 24.530052,352.591553 26.431776,362.341522 
	C30.877691,385.135284 48.372910,400.044891 60.673912,418.099182 
	C64.925751,424.339691 69.764496,430.414642 72.707970,437.264435 
	C79.212112,452.400269 79.990479,468.774719 80.786659,485.916962 
	C80.856918,491.944397 80.927177,497.971802 80.827507,504.879395 
	C80.507637,510.858307 80.030975,516.834045 79.909439,522.817017 
	C79.771828,529.591248 83.846138,533.806519 90.552605,533.889954 
	C99.872612,534.005920 109.196533,534.016296 118.516106,533.883728 
	C124.523865,533.798279 128.421616,530.002075 128.983490,524.017456 
	C129.138474,522.366760 129.030899,520.690674 129.031006,519.026245 
	C129.032608,492.404205 129.032150,465.782135 129.032150,438.827820 
	C133.484818,439.976379 137.604340,441.209686 141.797546,442.093384 
	C172.551849,448.574554 202.634033,445.060211 232.233810,435.615021 
	C235.305695,434.634796 237.478836,434.966553 239.999771,436.701691 
	C248.643555,442.651062 254.065140,451.080231 256.623657,460.847473 
	C259.469330,471.710846 260.864655,482.954163 262.690765,494.947113 
	C262.774139,503.624817 262.857483,512.302490 262.722321,521.770386 
	C262.890411,526.161621 263.058472,530.552917 263.318665,535.584412 
	C264.161072,536.528687 265.003479,537.472961 266.187134,538.966309 
	C267.787323,539.596741 269.387512,540.227173 271.880585,541.080383 
	C281.625732,541.022217 291.370880,540.964111 301.872223,541.048889 
	C308.469238,539.793274 311.237183,537.507751 311.728485,531.167297 
	C313.022827,514.464478 313.903931,497.729614 315.155457,480.125183 
	C315.098083,477.415314 315.040741,474.705414 315.135284,471.106812 
	C315.084900,468.406311 315.034515,465.705811 315.192505,462.123444 
	C315.111847,459.413208 315.031189,456.703003 315.081726,453.068481 
	C314.391510,441.768890 314.346619,430.379517 312.791901,419.200165 
	C311.693542,411.302429 313.218201,404.449707 316.458923,397.569519 
	C322.312988,385.141296 328.111450,372.686890 333.951385,360.204346 
	C334.719513,360.857422 335.941101,361.960663 337.229004,362.980133 
	C343.751129,368.142731 350.895325,371.881958 359.425720,372.059479 
	C367.989349,372.237701 372.639587,365.115601 369.498047,357.160126 
	C363.283630,341.422882 357.120605,325.663513 351.139435,309.836487 
	C344.795746,293.050140 336.355072,278.129700 318.567383,271.250000 
	C318.364380,268.545868 318.405457,266.044281 317.960175,263.632477 
	C313.464783,239.282181 308.918213,214.941223 304.320953,190.609924 
	C302.812653,182.627151 299.572876,180.652039 291.607239,182.393646 
	C281.962006,184.502487 272.297119,186.521576 262.378052,188.635468 
	C257.876984,164.230316 253.479462,140.400391 249.088303,116.569298 
	C247.705856,109.066658 244.137405,106.472603 236.829483,108.039314 
	C216.208252,112.460228 195.599564,116.941055 175.006393,121.490791 
	C166.823395,123.298683 164.551804,126.814087 166.068527,135.027664 
	C168.512833,148.264679 171.065918,161.481567 173.525925,174.715729 
	C175.547409,185.590637 177.500458,196.478271 179.529266,207.609528 
	C165.004684,210.747543 151.002594,213.772675 136.430130,216.921021 
	C137.243546,212.097794 137.929626,208.037598 138.612854,203.976913 
	C144.838913,166.972961 149.476593,129.839783 146.095673,92.219032 
	C144.545715,74.972183 141.783279,57.899681 134.961868,41.781639 
	C129.942902,29.922560 122.411423,19.916719 112.394669,11.817142 
	C109.413368,9.406450 105.713402,7.392822 102.400719,9.950781 
	C99.649727,12.075016 97.878708,15.610097 96.082771,18.753948 
	C95.438629,19.881536 95.974770,21.692734 95.999275,23.191488 
	C96.259407,39.099949 92.815819,54.198074 85.886681,68.483261 
	C85.084564,70.136909 83.706482,71.945572 82.124359,72.720039 
	C64.068878,81.558296 45.860767,90.085182 27.817610,98.948059 
	C11.820179,106.806068 3.186476,123.055801 6.022150,140.615311 
	C7.218464,148.023315 8.509086,155.834030 15.606685,160.655090 
	C15.606685,160.655090 15.607660,160.591278 16.227488,161.049011 
z"/>
<path fill="#030303" opacity="1.000000" stroke="none" 
	d="
M262.891357,494.032074 
	C260.864655,482.954163 259.469330,471.710846 256.623657,460.847473 
	C254.065140,451.080231 248.643555,442.651062 239.999771,436.701691 
	C237.478836,434.966553 235.305695,434.634796 232.233810,435.615021 
	C202.634033,445.060211 172.551849,448.574554 141.797546,442.093384 
	C137.604340,441.209686 133.484818,439.976379 129.032150,438.827820 
	C129.032150,465.782135 129.032608,492.404205 129.031006,519.026245 
	C129.030899,520.690674 129.138474,522.366760 128.983490,524.017456 
	C128.421616,530.002075 124.523865,533.798279 118.516106,533.883728 
	C109.196533,534.016296 99.872612,534.005920 90.552605,533.889954 
	C83.846138,533.806519 79.771828,529.591248 79.909439,522.817017 
	C80.030975,516.834045 80.507637,510.858307 81.211960,504.717407 
	C81.833786,507.624451 82.071159,510.693512 82.308533,513.762573 
	C82.468781,513.746399 82.629021,513.730286 82.789268,513.714111 
	C82.789268,501.495758 82.789268,489.277405 82.789268,475.904572 
	C82.039940,479.706238 81.518135,482.353607 80.996330,485.000946 
	C79.990479,468.774719 79.212112,452.400269 72.707970,437.264435 
	C69.764496,430.414642 64.925751,424.339691 60.673912,418.099182 
	C48.372910,400.044891 30.877691,385.135284 26.431776,362.341522 
	C24.530052,352.591553 23.431011,342.684998 22.516094,332.299866 
	C23.451099,328.264832 23.837250,324.779480 24.223402,321.294159 
	C23.926714,321.284027 23.630026,321.273926 23.333338,321.263794 
	C22.987316,324.866974 22.641296,328.470123 22.295275,332.073303 
	C22.046665,323.948090 21.798056,315.822906 22.011442,307.548706 
	C22.786106,308.930206 23.098774,310.460632 23.411440,311.991089 
	C23.867739,311.867920 24.324036,311.744720 24.780333,311.621552 
	C23.865864,309.389679 22.951395,307.157837 22.036926,304.925964 
	C23.268646,290.032776 28.332758,276.183044 33.509907,262.343964 
	C41.522728,240.924759 50.104942,219.680511 57.062092,197.919739 
	C60.806236,186.208710 61.669498,173.576645 63.895454,161.005249 
	C56.054527,161.005249 49.491650,161.005249 42.357330,160.576828 
	C33.230324,160.053726 24.674801,159.953812 16.118988,159.898438 
	C15.929556,159.897202 15.736835,160.403900 15.545648,160.673660 
	C8.509086,155.834030 7.218464,148.023315 6.022150,140.615311 
	C3.186476,123.055801 11.820179,106.806068 27.817610,98.948059 
	C45.860767,90.085182 64.068878,81.558296 82.124359,72.720039 
	C83.706482,71.945572 85.084564,70.136909 85.886681,68.483261 
	C92.815819,54.198074 96.259407,39.099949 95.999275,23.191488 
	C95.974770,21.692734 95.438629,19.881536 96.082771,18.753948 
	C97.878708,15.610097 99.649727,12.075016 102.400719,9.950781 
	C105.713402,7.392822 109.413368,9.406450 112.394669,11.817142 
	C122.411423,19.916719 129.942902,29.922560 134.961868,41.781639 
	C141.783279,57.899681 144.545715,74.972183 146.095673,92.219032 
	C149.476593,129.839783 144.838913,166.972961 138.612854,203.976913 
	C137.929626,208.037598 137.243546,212.097794 136.430130,216.921021 
	C151.002594,213.772675 165.004684,210.747543 179.529266,207.609528 
	C177.500458,196.478271 175.547409,185.590637 173.525925,174.715729 
	C171.065918,161.481567 168.512833,148.264679 166.068527,135.027664 
	C164.551804,126.814087 166.823395,123.298683 175.006393,121.490791 
	C195.599564,116.941055 216.208252,112.460228 236.829483,108.039314 
	C244.137405,106.472603 247.705856,109.066658 249.088303,116.569298 
	C253.479462,140.400391 257.876984,164.230316 262.378052,188.635468 
	C272.297119,186.521576 281.962006,184.502487 291.607239,182.393646 
	C299.572876,180.652039 302.812653,182.627151 304.320953,190.609924 
	C308.918213,214.941223 313.464783,239.282181 317.960175,263.632477 
	C318.405457,266.044281 318.364380,268.545868 318.567383,271.250000 
	C336.355072,278.129700 344.795746,293.050140 351.139435,309.836487 
	C357.120605,325.663513 363.283630,341.422882 369.498047,357.160126 
	C372.639587,365.115601 367.989349,372.237701 359.425720,372.059479 
	C350.895325,371.881958 343.751129,368.142731 337.229004,362.980133 
	C335.941101,361.960663 334.719513,360.857422 333.951385,360.204346 
	C328.111450,372.686890 322.312988,385.141296 316.458923,397.569519 
	C313.218201,404.449707 311.693542,411.302429 312.791901,419.200165 
	C314.346619,430.379517 314.391510,441.768890 314.626892,453.638153 
	C313.808289,454.712189 313.133331,455.212982 313.127533,455.721405 
	C313.040863,463.345154 312.984161,470.970856 313.107788,478.593048 
	C313.120972,479.407593 314.307434,480.203156 314.949585,481.007507 
	C313.903931,497.729614 313.022827,514.464478 311.728485,531.167297 
	C311.237183,537.507751 308.469238,539.793274 301.617889,540.565002 
	C300.854584,539.739807 300.348114,539.105164 299.836273,539.100830 
	C291.047363,539.025879 282.257172,538.979065 273.469452,539.095032 
	C272.634583,539.106079 271.814606,540.243225 270.987701,540.857605 
	C269.387512,540.227173 267.787323,539.596741 266.064087,538.305298 
	C265.571503,536.033875 265.201996,534.423340 264.739258,532.406433 
	C264.019257,533.614319 263.622925,534.279236 263.226562,534.944153 
	C263.058472,530.552917 262.890411,526.161621 263.134277,521.627991 
	C263.825195,523.630066 264.104156,525.774536 264.383118,527.919006 
	C264.497620,527.901550 264.612122,527.884033 264.726624,527.866577 
	C264.726624,515.305115 264.726624,502.743683 264.726624,489.821381 
	C263.996460,491.496613 263.443909,492.764343 262.891357,494.032074 
M110.028961,420.275085 
	C113.699066,412.681580 117.587929,411.262115 125.196686,414.777100 
	C135.993744,419.764954 147.340912,422.663422 159.154480,423.872253 
	C183.755554,426.389679 207.492218,422.364685 230.630432,414.238037 
	C234.881424,412.744995 238.536591,412.926819 242.572983,414.773285 
	C255.947479,420.891479 264.931793,431.153381 271.061127,444.210175 
	C278.460815,459.973114 280.898499,476.827026 281.131348,494.213165 
	C280.812988,494.562073 280.221161,494.907349 280.216522,495.260345 
	C280.117310,502.785614 280.026123,510.312561 280.134247,517.836304 
	C280.144257,518.531006 281.504852,519.206238 283.129364,519.929016 
	C286.559937,519.929016 289.990540,519.929016 293.773773,519.929016 
	C294.541046,505.541626 295.275391,491.772064 296.612244,478.574158 
	C296.836212,482.622650 297.060150,486.671173 297.284088,490.719666 
	C297.445770,490.707214 297.607422,490.694763 297.769104,490.682312 
	C297.769104,475.464417 297.769104,460.246552 297.769104,445.028656 
	C297.692139,445.029633 297.615204,445.030579 297.538239,445.031525 
	C297.029175,449.020111 296.520081,453.008698 295.852875,456.091827 
	C295.306488,446.455444 295.443329,436.719299 294.054291,427.205963 
	C291.947113,412.774231 293.128906,399.167938 300.022461,386.128754 
	C303.892639,378.808289 307.571838,371.348755 310.697968,363.690979 
	C312.036285,360.412628 312.975555,356.074951 311.957123,352.906097 
	C309.340881,344.765991 305.726715,336.918671 302.128571,329.131226 
	C299.413239,323.254547 299.668030,318.416321 303.724976,314.438263 
	C307.941345,310.303864 313.321014,309.588776 318.774384,313.105774 
	C321.644104,314.956543 324.144470,317.540100 326.397339,320.150330 
	C329.928070,324.241119 333.107910,328.634735 336.959656,333.570648 
	C337.053253,331.604980 337.485168,330.354034 337.098511,329.455322 
	C332.853851,319.590179 329.649811,309.016083 323.850311,300.146820 
	C316.488556,288.888306 300.881042,285.531708 288.624786,290.597595 
	C287.489990,291.066620 286.400696,292.832214 286.189087,294.141083 
	C285.314850,299.548615 285.038483,305.056427 284.089783,310.447693 
	C278.944427,339.688416 263.226288,360.385010 234.568542,369.885986 
	C214.416641,376.566986 193.332870,377.924103 172.411102,376.774963 
	C144.728317,375.254425 128.466873,361.278503 122.419449,334.951996 
	C120.134392,325.004333 120.166168,314.526550 119.100830,304.294708 
	C118.917412,302.533051 119.068047,300.416626 118.151138,299.100128 
	C107.200378,283.376862 107.066788,265.916748 110.553802,248.261124 
	C118.737518,206.824982 126.830055,165.405960 128.622742,123.584587 
	C128.844086,127.626762 129.065414,131.668945 129.286743,135.711121 
	C129.453049,135.698578 129.619339,135.686035 129.785645,135.673508 
	C129.785645,123.460052 129.785645,111.246605 129.785645,97.717445 
	C129.049835,102.020515 128.539215,105.006706 127.876228,107.102493 
	C126.483887,85.651985 124.534805,64.326523 114.073563,44.831425 
	C113.416801,45.467739 113.333717,46.059975 113.216972,46.645496 
	C110.543915,60.051514 106.968964,73.169647 99.251320,84.669090 
	C97.496605,87.283638 94.831909,89.742577 92.020958,91.119537 
	C73.275406,100.302132 54.250397,108.919212 35.578800,118.245773 
	C25.717211,123.171692 22.705433,131.339981 25.920187,140.091278 
	C32.045532,140.091278 38.016907,140.091278 44.211952,140.862213 
	C51.619007,141.052338 59.025902,141.252335 66.434074,141.375290 
	C66.618759,141.378342 66.817581,140.529312 67.813469,139.967621 
	C80.585594,142.221710 82.123787,144.008911 82.122604,156.809525 
	C82.120865,175.571426 79.586021,194.054886 73.464340,211.734192 
	C66.361343,232.247482 58.750904,252.635239 50.234039,272.596741 
	C38.186462,300.833374 38.474228,329.524261 45.439476,358.523041 
	C49.837471,376.833405 64.833931,388.717285 74.833191,403.643463 
	C79.606651,410.768951 85.284409,417.483429 88.873787,425.168213 
	C97.234032,443.067352 99.131912,462.482483 99.170860,482.215424 
	C98.809174,482.720856 98.139511,483.222046 98.132454,483.732391 
	C98.040840,490.354553 97.976822,496.979370 98.107445,503.599518 
	C98.123528,504.414185 99.305954,505.205872 100.074661,506.905273 
	C100.074661,508.797546 100.074661,510.689819 100.074661,512.796997 
	C103.426628,512.796997 106.501617,512.796997 110.425629,512.764099 
	C110.947960,511.535919 111.922462,510.309143 111.926254,509.079346 
	C112.012779,481.016113 112.019203,452.952484 111.911514,424.889374 
	C111.906525,423.587769 110.702919,422.290741 110.028961,420.275085 
M163.434036,357.129364 
	C164.397339,357.374664 165.347534,357.743286 166.325851,357.847137 
	C187.556458,360.100616 208.619110,358.790253 229.013596,352.592499 
	C253.894745,345.031250 269.673645,322.052185 268.652496,296.429199 
	C267.216431,296.770142 265.829346,297.236816 264.406403,297.412323 
	C259.515167,298.015656 257.466370,300.600220 256.357697,305.584839 
	C251.735657,326.365784 238.389221,338.804352 217.728302,343.057404 
	C209.629837,344.724457 201.284271,345.415894 193.012283,345.971954 
	C170.759613,347.467712 155.279068,338.403290 150.032425,318.033295 
	C149.783051,317.065094 148.524979,315.953583 147.516434,315.656464 
	C143.892761,314.588959 140.174469,313.842712 136.039612,312.868469 
	C136.427521,316.648621 136.616425,320.125610 137.163940,323.545135 
	C139.672913,339.214600 145.552811,352.371368 163.434036,357.129364 
M201.115631,228.293930 
	C200.686234,226.249557 200.256836,224.205170 199.746857,221.777115 
	C182.902023,225.432999 166.590988,228.973038 149.943390,232.586105 
	C153.666107,252.592102 157.312088,272.185608 160.983307,291.914856 
	C178.168350,288.183777 194.460022,284.646637 210.962601,281.063690 
	C207.675980,263.293518 204.514282,246.198776 201.115631,228.293930 
M222.053818,191.563660 
	C229.605515,189.882629 237.157227,188.201614 244.881760,186.482117 
	C241.126022,166.365067 237.486008,146.867844 233.827972,127.274010 
	C217.941284,130.686050 202.861771,134.006592 187.737381,137.108353 
	C184.462936,137.779892 183.882370,139.066666 184.536407,142.239182 
	C186.617401,152.333679 188.312729,162.507202 190.201691,172.641876 
	C191.711044,180.739853 193.285629,188.825668 194.904099,197.298157 
	C204.053818,195.379532 212.645325,193.577942 222.053818,191.563660 
M280.735626,203.226913 
	C266.988281,206.247604 253.240967,209.268295 239.260788,212.340149 
	C242.956406,232.217606 246.557449,251.586365 250.271988,271.565582 
	C267.177460,267.915527 283.595734,264.370667 300.277557,260.768890 
	C296.548218,240.684921 292.954041,221.328949 289.289825,201.595642 
	C286.398468,202.158875 283.988098,202.628403 280.735626,203.226913 
M216.346024,324.923004 
	C227.169235,322.586792 237.745361,313.436432 238.406647,305.500336 
	C215.124466,309.432068 191.692444,313.389099 168.354507,317.330231 
	C170.194077,323.424774 175.374802,327.714172 184.380493,327.623352 
	C194.775986,327.518585 205.157013,325.980621 216.346024,324.923004 
M220.636353,240.991608 
	C223.353485,255.633469 226.070618,270.275330 228.873489,285.379303 
	C231.220566,284.780029 233.196732,284.275482 235.405045,283.711639 
	C230.788116,258.878387 226.263092,234.539505 221.706177,210.029053 
	C219.194016,210.658127 217.311752,211.129471 215.269440,211.640884 
	C217.007324,221.310974 218.701218,230.736298 220.636353,240.991608 
M129.033844,276.346985 
	C130.783936,284.553955 135.407379,290.196045 144.105621,293.293396 
	C140.580688,274.379883 137.188065,256.176331 133.795441,237.972794 
	C133.309082,237.978043 132.822723,237.983292 132.336349,237.988541 
	C131.749802,240.638779 131.166107,243.289673 130.576202,245.939178 
	C128.402039,255.704285 126.856705,265.504913 129.033844,276.346985 
z"/>
<path fill="#1B1B1B" opacity="1.000000" stroke="none" 
	d="
M262.791077,494.489594 
	C263.443909,492.764343 263.996460,491.496613 264.726624,489.821381 
	C264.726624,502.743683 264.726624,515.305115 264.726624,527.866577 
	C264.612122,527.884033 264.497620,527.901550 264.383118,527.919006 
	C264.104156,525.774536 263.825195,523.630066 263.243530,521.232910 
	C262.857483,512.302490 262.774139,503.624817 262.791077,494.489594 
z"/>
<path fill="#1C1C1C" opacity="1.000000" stroke="none" 
	d="
M80.891495,485.458954 
	C81.518135,482.353607 82.039940,479.706238 82.789268,475.904572 
	C82.789268,489.277405 82.789268,501.495758 82.789268,513.714111 
	C82.629021,513.730286 82.468781,513.746399 82.308533,513.762573 
	C82.071159,510.693512 81.833786,507.624451 81.296921,504.277313 
	C80.927177,497.971802 80.856918,491.944397 80.891495,485.458954 
z"/>
<path fill="#1F1F1F" opacity="1.000000" stroke="none" 
	d="
M315.052521,480.566345 
	C314.307434,480.203156 313.120972,479.407593 313.107788,478.593048 
	C312.984161,470.970856 313.040863,463.345154 313.127533,455.721405 
	C313.133331,455.212982 313.808289,454.712189 314.561279,454.100281 
	C315.031189,456.703003 315.111847,459.413208 314.795349,462.831604 
	C314.593231,466.358368 314.788300,469.176941 314.983368,471.995544 
	C315.040741,474.705414 315.098083,477.415314 315.052521,480.566345 
z"/>
<path fill="#151515" opacity="1.000000" stroke="none" 
	d="
M271.434143,540.968994 
	C271.814606,540.243225 272.634583,539.106079 273.469452,539.095032 
	C282.257172,538.979065 291.047363,539.025879 299.836273,539.100830 
	C300.348114,539.105164 300.854584,539.739807 301.239807,540.493530 
	C291.370880,540.964111 281.625732,541.022217 271.434143,540.968994 
z"/>
<path fill="#1B1B1B" opacity="1.000000" stroke="none" 
	d="
M15.576166,160.664368 
	C15.736835,160.403900 15.929556,159.897202 16.118988,159.898438 
	C24.674801,159.953812 33.230324,160.053726 41.897774,160.534836 
	C39.307198,161.032486 36.604733,161.143707 33.182327,160.841644 
	C26.844145,160.482681 21.225903,160.536987 15.607660,160.591278 
	C15.607660,160.591278 15.606685,160.655090 15.576166,160.664368 
z"/>
<path fill="#030303" opacity="1.000000" stroke="none" 
	d="
M15.917574,160.820145 
	C21.225903,160.536987 26.844145,160.482681 32.741508,160.744293 
	C27.422913,161.056473 21.825201,161.052734 15.917574,160.820145 
z"/>
<path fill="#151515" opacity="1.000000" stroke="none" 
	d="
M22.314972,332.044342 
	C22.641296,328.470123 22.987316,324.866974 23.333338,321.263794 
	C23.630026,321.273926 23.926714,321.284027 24.223402,321.294159 
	C23.837250,324.779480 23.451099,328.264832 22.643869,331.953430 
	C22.222792,332.156738 22.334671,332.015381 22.314972,332.044342 
z"/>
<path fill="#151515" opacity="1.000000" stroke="none" 
	d="
M21.930569,305.108398 
	C22.951395,307.157837 23.865864,309.389679 24.780333,311.621552 
	C24.324036,311.744720 23.867739,311.867920 23.411440,311.991089 
	C23.098774,310.460632 22.786106,308.930206 22.177273,307.169556 
	C21.862143,306.389862 21.843178,305.840332 21.930569,305.108398 
z"/>
<path fill="#030303" opacity="1.000000" stroke="none" 
	d="
M315.059326,471.551178 
	C314.788300,469.176941 314.593231,466.358368 314.691162,463.272522 
	C315.034515,465.705811 315.084900,468.406311 315.059326,471.551178 
z"/>
<path fill="#1B1B1B" opacity="1.000000" stroke="none" 
	d="
M263.272614,535.264282 
	C263.622925,534.279236 264.019257,533.614319 264.739258,532.406433 
	C265.201996,534.423340 265.571503,536.033875 265.893433,538.030762 
	C265.003479,537.472961 264.161072,536.528687 263.272614,535.264282 
z"/>
<path fill="#FDFDFD" opacity="1.000000" stroke="none" 
	d="
M109.576614,512.796997 
	C106.501617,512.796997 103.426628,512.796997 100.074661,512.796997 
	C100.074661,510.689819 100.074661,508.797546 100.113190,506.035767 
	C100.092285,503.441711 100.032845,501.717163 100.045494,499.539917 
	C100.069237,495.727997 100.020889,492.368713 100.073601,488.579590 
	C100.098030,486.096863 100.021393,484.044037 99.944763,481.991211 
	C99.131912,462.482483 97.234032,443.067352 88.873787,425.168213 
	C85.284409,417.483429 79.606651,410.768951 74.833191,403.643463 
	C64.833931,388.717285 49.837471,376.833405 45.439476,358.523041 
	C38.474228,329.524261 38.186462,300.833374 50.234039,272.596741 
	C58.750904,252.635239 66.361343,232.247482 73.464340,211.734192 
	C79.586021,194.054886 82.120865,175.571426 82.122604,156.809525 
	C82.123787,144.008911 80.585594,142.221710 67.047318,139.904922 
	C65.525505,139.878281 64.769829,139.914352 63.558762,139.844330 
	C58.728317,139.804916 54.353271,139.871613 49.559624,139.832977 
	C47.423443,139.848846 45.705860,139.970062 43.988277,140.091278 
	C38.016907,140.091278 32.045532,140.091278 25.920187,140.091278 
	C22.705433,131.339981 25.717211,123.171692 35.578800,118.245773 
	C54.250397,108.919212 73.275406,100.302132 92.020958,91.119537 
	C94.831909,89.742577 97.496605,87.283638 99.251320,84.669090 
	C106.968964,73.169647 110.543915,60.051514 113.216972,46.645496 
	C113.333717,46.059975 113.416801,45.467739 114.073563,44.831425 
	C124.534805,64.326523 126.483887,85.651985 127.851669,108.004883 
	C127.894081,113.607300 127.961052,118.307312 128.028030,123.007332 
	C126.830055,165.405960 118.737518,206.824982 110.553802,248.261124 
	C107.066788,265.916748 107.200378,283.376862 118.151138,299.100128 
	C119.068047,300.416626 118.917412,302.533051 119.100830,304.294708 
	C120.166168,314.526550 120.134392,325.004333 122.419449,334.951996 
	C128.466873,361.278503 144.728317,375.254425 172.411102,376.774963 
	C193.332870,377.924103 214.416641,376.566986 234.568542,369.885986 
	C263.226288,360.385010 278.944427,339.688416 284.089783,310.447693 
	C285.038483,305.056427 285.314850,299.548615 286.189087,294.141083 
	C286.400696,292.832214 287.489990,291.066620 288.624786,290.597595 
	C300.881042,285.531708 316.488556,288.888306 323.850311,300.146820 
	C329.649811,309.016083 332.853851,319.590179 337.098511,329.455322 
	C337.485168,330.354034 337.053253,331.604980 336.959656,333.570648 
	C333.107910,328.634735 329.928070,324.241119 326.397339,320.150330 
	C324.144470,317.540100 321.644104,314.956543 318.774384,313.105774 
	C313.321014,309.588776 307.941345,310.303864 303.724976,314.438263 
	C299.668030,318.416321 299.413239,323.254547 302.128571,329.131226 
	C305.726715,336.918671 309.340881,344.765991 311.957123,352.906097 
	C312.975555,356.074951 312.036285,360.412628 310.697968,363.690979 
	C307.571838,371.348755 303.892639,378.808289 300.022461,386.128754 
	C293.128906,399.167938 291.947113,412.774231 294.054291,427.205963 
	C295.443329,436.719299 295.306488,446.455444 295.827759,457.003174 
	C295.871674,464.610504 295.940674,471.306519 296.009705,478.002502 
	C295.275391,491.772064 294.541046,505.541626 293.773773,519.929016 
	C289.990540,519.929016 286.559937,519.929016 282.637787,519.450134 
	C282.064484,510.643677 281.982788,502.316071 281.901062,493.988495 
	C280.898499,476.827026 278.460815,459.973114 271.061127,444.210175 
	C264.931793,431.153381 255.947479,420.891479 242.572983,414.773285 
	C238.536591,412.926819 234.881424,412.744995 230.630432,414.238037 
	C207.492218,422.364685 183.755554,426.389679 159.154480,423.872253 
	C147.340912,422.663422 135.993744,419.764954 125.196686,414.777100 
	C117.587929,411.262115 113.699066,412.681580 109.931580,420.958740 
	C109.881088,422.092468 109.927986,422.542542 109.882118,423.453735 
	C109.846313,452.948090 109.903275,481.981262 109.839066,511.296692 
	C109.670799,511.984955 109.623711,512.390991 109.576614,512.796997 
z"/>
<path fill="#F8F8F8" opacity="1.000000" stroke="none" 
	d="
M163.034882,357.041901 
	C145.552811,352.371368 139.672913,339.214600 137.163940,323.545135 
	C136.616425,320.125610 136.427521,316.648621 136.039612,312.868469 
	C140.174469,313.842712 143.892761,314.588959 147.516434,315.656464 
	C148.524979,315.953583 149.783051,317.065094 150.032425,318.033295 
	C155.279068,338.403290 170.759613,347.467712 193.012283,345.971954 
	C201.284271,345.415894 209.629837,344.724457 217.728302,343.057404 
	C238.389221,338.804352 251.735657,326.365784 256.357697,305.584839 
	C257.466370,300.600220 259.515167,298.015656 264.406403,297.412323 
	C265.829346,297.236816 267.216431,296.770142 268.652496,296.429199 
	C269.673645,322.052185 253.894745,345.031250 229.013596,352.592499 
	C208.619110,358.790253 187.556458,360.100616 166.325851,357.847137 
	C165.347534,357.743286 164.397339,357.374664 163.034882,357.041901 
z"/>
<path fill="#A3C835" opacity="1.000000" stroke="none" 
	d="
M201.234100,228.698975 
	C204.514282,246.198776 207.675980,263.293518 210.962601,281.063690 
	C194.460022,284.646637 178.168350,288.183777 160.983307,291.914856 
	C157.312088,272.185608 153.666107,252.592102 149.943390,232.586105 
	C166.590988,228.973038 182.902023,225.432999 199.746857,221.777115 
	C200.256836,224.205170 200.686234,226.249557 201.234100,228.698975 
M199.857544,271.038177 
	C200.208511,270.284668 200.960602,269.465973 200.850372,268.787354 
	C199.150589,258.322693 197.525436,247.836578 195.325455,237.473816 
	C195.038361,236.121506 191.528961,234.453217 189.755203,234.697388 
	C187.975922,234.942337 186.097961,237.159775 185.032394,238.966385 
	C184.307205,240.195892 184.688797,242.241211 184.949356,243.861603 
	C186.242218,251.901443 187.544830,259.943176 189.071442,267.940796 
	C190.152313,273.603302 194.385956,275.028564 199.857544,271.038177 
M160.728149,246.604843 
	C162.171707,255.432953 163.501602,264.281860 165.112289,273.079376 
	C165.798294,276.826324 168.240051,279.026917 172.278671,278.170105 
	C176.022476,277.375854 177.416550,274.444794 176.886337,271.022705 
	C175.542587,262.349701 173.799347,253.739426 172.342865,245.082703 
	C171.733093,241.458481 169.931671,239.093445 166.159134,239.311066 
	C162.402893,239.527740 160.665649,242.008316 160.728149,246.604843 
z"/>
<path fill="#A4C935" opacity="1.000000" stroke="none" 
	d="
M221.645325,191.670013 
	C212.645325,193.577942 204.053818,195.379532 194.904099,197.298157 
	C193.285629,188.825668 191.711044,180.739853 190.201691,172.641876 
	C188.312729,162.507202 186.617401,152.333679 184.536407,142.239182 
	C183.882370,139.066666 184.462936,137.779892 187.737381,137.108353 
	C202.861771,134.006592 217.941284,130.686050 233.827972,127.274010 
	C237.486008,146.867844 241.126022,166.365067 244.881760,186.482117 
	C237.157227,188.201614 229.605515,189.882629 221.645325,191.670013 
M205.661255,149.231369 
	C204.140381,146.271225 201.972549,144.370728 198.466095,145.632156 
	C194.663696,147.000092 193.818802,150.064972 194.451752,153.729233 
	C195.866165,161.917664 197.354233,170.093765 198.708237,178.292084 
	C199.369354,182.294937 201.281494,184.851334 205.613068,184.434021 
	C209.293076,184.079498 211.066666,180.835999 210.299515,176.041946 
	C208.908035,167.346283 207.397522,158.669647 205.661255,149.231369 
M222.048615,170.209656 
	C222.270981,171.180862 222.519760,172.146881 222.711212,173.124130 
	C223.681503,178.076828 226.153503,180.492813 229.753860,179.556320 
	C234.134521,178.416840 235.146347,175.290848 234.361908,171.077621 
	C232.874313,163.087570 231.499496,155.073761 230.254593,147.042419 
	C229.594101,142.781342 227.695679,140.189636 223.061859,140.748138 
	C219.387665,141.190948 217.810699,144.202286 218.600937,149.247452 
	C219.653000,155.964066 220.827332,162.661545 222.048615,170.209656 
z"/>
<path fill="#A4C935" opacity="1.000000" stroke="none" 
	d="
M281.156677,203.162415 
	C283.988098,202.628403 286.398468,202.158875 289.289825,201.595642 
	C292.954041,221.328949 296.548218,240.684921 300.277557,260.768890 
	C283.595734,264.370667 267.177460,267.915527 250.271988,271.565582 
	C246.557449,251.586365 242.956406,232.217606 239.260788,212.340149 
	C253.240967,209.268295 266.988281,206.247604 281.156677,203.162415 
M278.687195,245.690033 
	C279.644348,251.376846 282.040558,253.806808 285.991028,253.096786 
	C289.671875,252.435242 291.296295,249.164719 290.423920,243.979996 
	C289.127747,236.276688 287.721039,228.591614 286.473053,220.880692 
	C285.823120,216.865250 284.362427,213.671326 279.637634,213.975006 
	C275.943787,214.212418 273.989380,217.833130 274.767670,222.755783 
	C275.935089,230.139786 277.233948,237.503006 278.687195,245.690033 
M266.800354,251.342865 
	C265.298096,242.662369 263.841370,233.973663 262.276001,225.304565 
	C261.384430,220.366608 258.830933,218.036987 255.139465,218.960114 
	C250.928940,220.013046 249.960220,223.110794 250.652206,227.071457 
	C252.081894,235.254532 253.509827,243.438965 254.806396,251.643723 
	C255.356430,255.124237 256.723267,257.847809 260.554749,258.007812 
	C264.376617,258.167358 266.173157,255.675552 266.800354,251.342865 
z"/>
<path fill="#F7F7F7" opacity="1.000000" stroke="none" 
	d="
M215.945175,324.994019 
	C205.157013,325.980621 194.775986,327.518585 184.380493,327.623352 
	C175.374802,327.714172 170.194077,323.424774 168.354507,317.330231 
	C191.692444,313.389099 215.124466,309.432068 238.406647,305.500336 
	C237.745361,313.436432 227.169235,322.586792 215.945175,324.994019 
z"/>
<path fill="#F0F0F0" opacity="1.000000" stroke="none" 
	d="
M220.515732,240.576630 
	C218.701218,230.736298 217.007324,221.310974 215.269440,211.640884 
	C217.311752,211.129471 219.194016,210.658127 221.706177,210.029053 
	C226.263092,234.539505 230.788116,258.878387 235.405045,283.711639 
	C233.196732,284.275482 231.220566,284.780029 228.873489,285.379303 
	C226.070618,270.275330 223.353485,255.633469 220.515732,240.576630 
z"/>
<path fill="#F3F3F3" opacity="1.000000" stroke="none" 
	d="
M128.963074,275.928284 
	C126.856705,265.504913 128.402039,255.704285 130.576202,245.939178 
	C131.166107,243.289673 131.749802,240.638779 132.336349,237.988541 
	C132.822723,237.983292 133.309082,237.978043 133.795441,237.972794 
	C137.188065,256.176331 140.580688,274.379883 144.105621,293.293396 
	C135.407379,290.196045 130.783936,284.553955 128.963074,275.928284 
z"/>
<path fill="#1F1F1F" opacity="1.000000" stroke="none" 
	d="
M109.974876,422.992584 
	C109.927986,422.542542 109.881088,422.092468 109.945877,421.317017 
	C110.702919,422.290741 111.906525,423.587769 111.911514,424.889374 
	C112.019203,452.952484 112.012779,481.016113 111.926254,509.079346 
	C111.922462,510.309143 110.947960,511.535919 110.001122,512.780518 
	C109.623711,512.390991 109.670799,511.984955 110.154114,511.017090 
	C110.728371,509.645905 110.986412,508.836609 110.987061,508.027161 
	C111.008606,480.899200 111.018967,453.771179 110.962486,426.643341 
	C110.959953,425.425751 110.318649,424.209473 109.974876,422.992584 
z"/>
<path fill="#1D1D1D" opacity="1.000000" stroke="none" 
	d="
M296.310974,478.288330 
	C295.940674,471.306519 295.871674,464.610504 295.906799,457.455902 
	C296.520081,453.008698 297.029175,449.020111 297.538239,445.031525 
	C297.615204,445.030579 297.692139,445.029633 297.769104,445.028656 
	C297.769104,460.246552 297.769104,475.464417 297.769104,490.682312 
	C297.607422,490.694763 297.445770,490.707214 297.284088,490.719666 
	C297.060150,486.671173 296.836212,482.622650 296.310974,478.288330 
z"/>
<path fill="#1D1D1D" opacity="1.000000" stroke="none" 
	d="
M128.325378,123.295959 
	C127.961052,118.307312 127.894081,113.607300 127.927841,108.450089 
	C128.539215,105.006706 129.049835,102.020515 129.785645,97.717445 
	C129.785645,111.246605 129.785645,123.460052 129.785645,135.673508 
	C129.619339,135.686035 129.453049,135.698578 129.286743,135.711121 
	C129.065414,131.668945 128.844086,127.626762 128.325378,123.295959 
z"/>
<path fill="#1A1A1A" opacity="1.000000" stroke="none" 
	d="
M281.516205,494.100830 
	C281.982788,502.316071 282.064484,510.643677 282.192261,519.430908 
	C281.504852,519.206238 280.144257,518.531006 280.134247,517.836304 
	C280.026123,510.312561 280.117310,502.785614 280.216522,495.260345 
	C280.221161,494.907349 280.812988,494.562073 281.516205,494.100830 
z"/>
<path fill="#202020" opacity="1.000000" stroke="none" 
	d="
M99.557816,482.103333 
	C100.021393,484.044037 100.098030,486.096863 99.777344,488.857605 
	C99.577820,493.041199 99.775612,496.516876 99.973404,499.992584 
	C100.032845,501.717163 100.092285,503.441711 100.049805,505.587219 
	C99.305954,505.205872 98.123528,504.414185 98.107445,503.599518 
	C97.976822,496.979370 98.040840,490.354553 98.132454,483.732391 
	C98.139511,483.222046 98.809174,482.720856 99.557816,482.103333 
z"/>
<path fill="#1C1C1C" opacity="1.000000" stroke="none" 
	d="
M44.100113,140.476746 
	C45.705860,139.970062 47.423443,139.848846 49.835983,140.147797 
	C55.025349,140.362091 59.519756,140.156265 64.014160,139.950424 
	C64.769829,139.914352 65.525505,139.878281 66.645493,139.959946 
	C66.817581,140.529312 66.618759,141.378342 66.434074,141.375290 
	C59.025902,141.252335 51.619007,141.052338 44.100113,140.476746 
z"/>
<path fill="#030303" opacity="1.000000" stroke="none" 
	d="
M109.882118,423.453735 
	C110.318649,424.209473 110.959953,425.425751 110.962486,426.643341 
	C111.018967,453.771179 111.008606,480.899200 110.987061,508.027161 
	C110.986412,508.836609 110.728371,509.645905 110.275284,510.734863 
	C109.903275,481.981262 109.846313,452.948090 109.882118,423.453735 
z"/>
<path fill="#030303" opacity="1.000000" stroke="none" 
	d="
M63.558762,139.844330 
	C59.519756,140.156265 55.025349,140.362091 50.254585,140.253113 
	C54.353271,139.871613 58.728317,139.804916 63.558762,139.844330 
z"/>
<path fill="#030303" opacity="1.000000" stroke="none" 
	d="
M100.045502,499.539917 
	C99.775612,496.516876 99.577820,493.041199 99.676285,489.287476 
	C100.020889,492.368713 100.069237,495.727997 100.045502,499.539917 
z"/>
<path fill="#060801" opacity="1.000000" stroke="none" 
	d="
M199.617615,271.342865 
	C194.385956,275.028564 190.152313,273.603302 189.071442,267.940796 
	C187.544830,259.943176 186.242218,251.901443 184.949356,243.861603 
	C184.688797,242.241211 184.307205,240.195892 185.032394,238.966385 
	C186.097961,237.159775 187.975922,234.942337 189.755203,234.697388 
	C191.528961,234.453217 195.038361,236.121506 195.325455,237.473816 
	C197.525436,247.836578 199.150589,258.322693 200.850372,268.787354 
	C200.960602,269.465973 200.208511,270.284668 199.617615,271.342865 
z"/>
<path fill="#040601" opacity="1.000000" stroke="none" 
	d="
M160.721863,246.169250 
	C160.665649,242.008316 162.402893,239.527740 166.159134,239.311066 
	C169.931671,239.093445 171.733093,241.458481 172.342865,245.082703 
	C173.799347,253.739426 175.542587,262.349701 176.886337,271.022705 
	C177.416550,274.444794 176.022476,277.375854 172.278671,278.170105 
	C168.240051,279.026917 165.798294,276.826324 165.112289,273.079376 
	C163.501602,264.281860 162.171707,255.432953 160.721863,246.169250 
z"/>
<path fill="#070902" opacity="1.000000" stroke="none" 
	d="
M205.798981,149.608215 
	C207.397522,158.669647 208.908035,167.346283 210.299515,176.041946 
	C211.066666,180.835999 209.293076,184.079498 205.613068,184.434021 
	C201.281494,184.851334 199.369354,182.294937 198.708237,178.292084 
	C197.354233,170.093765 195.866165,161.917664 194.451752,153.729233 
	C193.818802,150.064972 194.663696,147.000092 198.466095,145.632156 
	C201.972549,144.370728 204.140381,146.271225 205.798981,149.608215 
z"/>
<path fill="#060801" opacity="1.000000" stroke="none" 
	d="
M221.998871,169.788452 
	C220.827332,162.661545 219.653000,155.964066 218.600937,149.247452 
	C217.810699,144.202286 219.387665,141.190948 223.061859,140.748138 
	C227.695679,140.189636 229.594101,142.781342 230.254593,147.042419 
	C231.499496,155.073761 232.874313,163.087570 234.361908,171.077621 
	C235.146347,175.290848 234.134521,178.416840 229.753860,179.556320 
	C226.153503,180.492813 223.681503,178.076828 222.711212,173.124130 
	C222.519760,172.146881 222.270981,171.180862 221.998871,169.788452 
z"/>
<path fill="#070901" opacity="1.000000" stroke="none" 
	d="
M278.582062,245.282562 
	C277.233948,237.503006 275.935089,230.139786 274.767670,222.755783 
	C273.989380,217.833130 275.943787,214.212418 279.637634,213.975006 
	C284.362427,213.671326 285.823120,216.865250 286.473053,220.880692 
	C287.721039,228.591614 289.127747,236.276688 290.423920,243.979996 
	C291.296295,249.164719 289.671875,252.435242 285.991028,253.096786 
	C282.040558,253.806808 279.644348,251.376846 278.582062,245.282562 
z"/>
<path fill="#060801" opacity="1.000000" stroke="none" 
	d="
M266.783203,251.746643 
	C266.173157,255.675552 264.376617,258.167358 260.554749,258.007812 
	C256.723267,257.847809 255.356430,255.124237 254.806396,251.643723 
	C253.509827,243.438965 252.081894,235.254532 250.652206,227.071457 
	C249.960220,223.110794 250.928940,220.013046 255.139465,218.960114 
	C258.830933,218.036987 261.384430,220.366608 262.276001,225.304565 
	C263.841370,233.973663 265.298096,242.662369 266.783203,251.746643 
z"/>
</svg>