<svg
  xmlns="http://www.w3.org/2000/svg"
  width="264px"
  height="121px"
  viewBox="0 0 264 121"
  >
  <path
    d="M21.44-7.23L21.44-7.23L21.44-7.23Q18.11-3.78 12.03-3.78L12.03-3.78L12.03-3.78Q4.42-3.78 2.82-9.34L2.82-9.34L2.82-9.34Q2.30-11.01 2.30-12.86L2.30-12.86L2.30-12.86Q2.30-14.72 2.69-16.64L2.69-16.64L5.70-32.64L18.69-33.92L15.17-15.30L15.17-15.30Q15.04-14.46 14.85-13.57L14.85-13.57L14.85-13.57Q14.66-12.67 14.66-11.74L14.66-11.74L14.66-11.74Q14.66-10.82 14.98-10.21L14.98-10.21L14.98-10.21Q15.30-9.60 15.74-9.22L15.74-9.22L15.74-9.22Q16.51-8.70 17.89-8.70L17.89-8.70L17.89-8.70Q19.26-8.70 20.45-10.37L20.45-10.37L20.45-10.37Q21.63-12.03 22.21-14.91L22.21-14.91L25.73-32.64L38.34-33.92L33.54-8.77L33.54-8.77Q31.17 3.52 26.30 8.38L26.30 8.38L26.30 8.38Q23.81 10.88 20.58 11.87L20.58 11.87L20.58 11.87Q17.34 12.86 13.18 12.86L13.18 12.86L13.18 12.86Q6.46 12.86 2.62 10.75L2.62 10.75L2.62 10.75Q-1.22 8.64-1.22 5.12L-1.22 5.12L-1.22 5.12Q-1.22 2.50 0.77 0.99L0.77 0.99L0.77 0.99Q2.75-0.51 5.82-0.51L5.82-0.51L5.82-0.51Q8.51-0.51 10.56 0.64L10.56 0.64L10.56 0.64Q11.78 1.34 12.35 2.24L12.35 2.24L12.35 2.24Q10.88 3.52 10.88 5.63L10.88 5.63L10.88 5.63Q10.88 8.45 13.44 8.45L13.44 8.45L13.44 8.45Q17.66 8.45 20.10-1.28L20.10-1.28L20.10-1.28Q20.80-4.16 21.44-7.23ZM66.56-10.82L66.56-10.82L66.56-10.82Q68.16-9.73 68.16-7.33L68.16-7.33L68.16-7.33Q68.16-4.93 66.94-3.39L66.94-3.39L66.94-3.39Q65.73-1.86 63.74-0.83L63.74-0.83L63.74-0.83Q59.65 1.28 55.23 1.28L55.23 1.28L55.23 1.28Q50.82 1.28 48.22 0.32L48.22 0.32L48.22 0.32Q45.63-0.64 43.90-2.43L43.90-2.43L43.90-2.43Q40.51-5.82 40.51-12.03L40.51-12.03L40.51-12.03Q40.51-21.70 45.76-27.58L45.76-27.58L45.76-27.58Q51.39-33.92 61.18-33.92L61.18-33.92L61.18-33.92Q67.26-33.92 70.27-31.36L70.27-31.36L70.27-31.36Q72.51-29.44 72.51-26.30L72.51-26.30L72.51-26.30Q72.51-15.04 53.06-15.04L53.06-15.04L53.06-15.04Q52.80-13.38 52.80-11.97L52.80-11.97L52.80-11.97Q52.80-9.02 54.11-7.90L54.11-7.90L54.11-7.90Q55.42-6.78 57.86-6.78L57.86-6.78L57.86-6.78Q60.29-6.78 62.88-7.90L62.88-7.90L62.88-7.90Q65.47-9.02 66.56-10.82ZM53.50-17.79L53.50-17.79L53.50-17.79Q58.05-17.79 60.67-20.61L60.67-20.61L60.67-20.61Q63.30-23.30 63.30-27.58L63.30-27.58L63.30-27.58Q63.30-29.06 62.75-29.86L62.75-29.86L62.75-29.86Q62.21-30.66 61.12-30.66L61.12-30.66L61.12-30.66Q60.03-30.66 59.10-30.24L59.10-30.24L59.10-30.24Q58.18-29.82 57.22-28.42L57.22-28.42L57.22-28.42Q54.85-25.22 53.50-17.79ZM77.47-1.92L77.47-1.92L77.47-1.92Q75.97-3.58 75.30-6.21L75.30-6.21L75.30-6.21Q74.62-8.83 74.62-13.12L74.62-13.12L74.62-13.12Q74.62-17.41 76.10-21.31L76.10-21.31L76.10-21.31Q77.57-25.22 80.26-28.03L80.26-28.03L80.26-28.03Q85.76-33.92 94.85-33.92L94.85-33.92L94.85-33.92Q98.11-33.92 100.48-32.83L100.48-32.83L111.42-33.92L106.69-8.96L106.69-8.96Q106.50-8.19 106.50-6.78L106.50-6.78L106.50-6.78Q106.50-5.38 107.36-4.48L107.36-4.48L107.36-4.48Q108.22-3.58 109.50-3.46L109.50-3.46L109.50-3.46Q108.86-1.28 106.53 0L106.53 0L106.53 0Q104.19 1.28 101.57 1.28L101.57 1.28L101.57 1.28Q98.94 1.28 97.18 0.29L97.18 0.29L97.18 0.29Q95.42-0.70 94.91-2.37L94.91-2.37L94.91-2.37Q93.89-0.77 91.71 0.26L91.71 0.26L91.71 0.26Q89.54 1.28 86.62 1.28L86.62 1.28L86.62 1.28Q83.71 1.28 81.34 0.51L81.34 0.51L81.34 0.51Q78.98-0.26 77.47-1.92ZM90.98-27.90L90.98-27.90L90.98-27.90Q90.24-26.75 89.60-24.80L89.60-24.80L89.60-24.80Q88.96-22.85 87.90-17.63L87.90-17.63L87.90-17.63Q86.85-12.42 86.85-8.70L86.85-8.70L86.85-8.70Q86.85-4.99 87.42-3.90L87.42-3.90L87.42-3.90Q88-2.82 89.02-2.82L89.02-2.82L89.02-2.82Q91.07-2.82 92.58-4.77L92.58-4.77L92.58-4.77Q94.08-6.72 94.66-10.18L94.66-10.18L98.05-28.93L98.05-28.93Q96.70-30.08 95.14-30.08L95.14-30.08L95.14-30.08Q93.57-30.08 92.64-29.57L92.64-29.57L92.64-29.57Q91.71-29.06 90.98-27.90ZM134.91-17.98L134.91-17.98L134.91-17.98Q137.22-22.08 137.22-26.24L137.22-26.24L137.22-26.24Q137.22-28.99 135.23-28.99L135.23-28.99L135.23-28.99Q133.70-28.99 132.10-26.37L132.10-26.37L132.10-26.37Q130.43-23.74 129.92-20.35L129.92-20.35L126.59 0L113.34 1.28L119.87-32.64L130.43-33.92L129.28-27.46L129.28-27.46Q132.42-33.92 139.46-33.92L139.46-33.92L139.46-33.92Q143.17-33.92 145.18-32L145.18-32L145.18-32Q147.20-30.08 147.20-26.14L147.20-26.14L147.20-26.14Q147.20-22.21 144.61-19.71L144.61-19.71L144.61-19.71Q142.02-17.22 137.60-17.22L137.60-17.22L137.60-17.22Q135.68-17.22 134.91-17.98ZM167.36-22.46L167.36-22.46L167.36-22.46Q168.26-24.83 168.26-26.88L168.26-26.88L168.26-26.88Q168.26-30.66 165.18-30.66L165.18-30.66L165.18-30.66Q163.58-30.66 162.27-29.22L162.27-29.22L162.27-29.22Q160.96-27.78 160.96-25.98L160.96-25.98L160.96-25.98Q160.96-24.70 161.98-23.68L161.98-23.68L161.98-23.68Q163.46-22.27 167.23-19.97L167.23-19.97L167.23-19.97Q171.01-17.66 172.45-15.78L172.45-15.78L172.45-15.78Q173.89-13.89 173.89-11.30L173.89-11.30L173.89-11.30Q173.89-8.70 172.64-6.34L172.64-6.34L172.64-6.34Q171.39-3.97 169.15-2.30L169.15-2.30L169.15-2.30Q164.35 1.28 156.67 1.28L156.67 1.28L156.67 1.28Q152.51 1.28 149.31-0.90L149.31-0.90L149.31-0.90Q146.11-3.01 146.11-5.50L146.11-5.50L146.11-5.50Q146.11-8 147.94-9.47L147.94-9.47L147.94-9.47Q149.76-10.94 152.45-10.94L152.45-10.94L152.45-10.94Q155.14-10.94 156.80-9.92L156.80-9.92L156.80-9.92Q155.97-7.81 155.97-6.40L155.97-6.40L155.97-6.40Q155.97-2.18 159.55-2.18L159.55-2.18L159.55-2.18Q161.09-2.18 162.11-3.14L162.11-3.14L162.11-3.14Q163.14-4.10 163.14-5.76L163.14-5.76L163.14-5.76Q163.14-9.02 157.63-12.48L157.63-12.48L157.63-12.48Q153.15-15.42 152.13-16.58L152.13-16.58L152.13-16.58Q150.40-18.62 150.40-21.18L150.40-21.18L150.40-21.18Q150.40-23.74 151.62-26.18L151.62-26.18L151.62-26.18Q152.83-28.61 155.07-30.34L155.07-30.34L155.07-30.34Q159.74-33.92 167.87-33.92L167.87-33.92L167.87-33.92Q172.03-33.92 174.50-32.26L174.50-32.26L174.50-32.26Q176.96-30.59 176.96-27.78L176.96-27.78L176.96-27.78Q176.96-24.96 175.26-23.36L175.26-23.36L175.26-23.36Q173.57-21.76 170.50-21.76L170.50-21.76L170.50-21.76Q168.38-21.76 167.36-22.46Z"
    fill="#ccc">
  </path>
</svg>