<svg
  width="163.094287109375px"
  height="121.39999999999999px"
  xmlns="http://www.w3.org/2000/svg"
  viewBox="168.4528564453125 14.300000000000004 163.094287109375 121.39999999999999"
  preserveAspectRatio="xMidYMid">
  <defs>
  <filter id="editing-hole" x="-100%" y="-100%" width="300%" height="300%">
  <feFlood flood-color="#000" result="black"></feFlood>
  <feMorphology operator="dilate" radius="2" in="SourceGraphic" result="erode"></feMorphology>
  <feGaussianBlur in="erode" stdDeviation="4" result="blur"></feGaussianBlur>
  <feOffset in="blur" dx="2" dy="2" result="offset"></feOffset>
  <feComposite operator="atop" in="offset" in2="black" result="merge"></feComposite>
  <feComposite operator="in" in="merge" in2="SourceGraphic" result="inner-shadow"></feComposite>
  </filter>
  </defs>
  <g filter="url(#editing-hole)">
  <g transform="translate(198.64204287528992, 98.39000129699707)">
  <path d="M21.44-7.23L21.44-7.23L21.44-7.23Q18.11-3.78 12.03-3.78L12.03-3.78L12.03-3.78Q4.42-3.78 2.82-9.34L2.82-9.34L2.82-9.34Q2.30-11.01 2.30-12.86L2.30-12.86L2.30-12.86Q2.30-14.72 2.69-16.64L2.69-16.64L5.70-32.64L18.69-33.92L15.17-15.30L15.17-15.30Q15.04-14.46 14.85-13.57L14.85-13.57L14.85-13.57Q14.66-12.67 14.66-11.74L14.66-11.74L14.66-11.74Q14.66-10.82 14.98-10.21L14.98-10.21L14.98-10.21Q15.30-9.60 15.74-9.22L15.74-9.22L15.74-9.22Q16.51-8.70 17.89-8.70L17.89-8.70L17.89-8.70Q19.26-8.70 20.45-10.37L20.45-10.37L20.45-10.37Q21.63-12.03 22.21-14.91L22.21-14.91L25.73-32.64L38.34-33.92L33.54-8.77L33.54-8.77Q31.17 3.52 26.30 8.38L26.30 8.38L26.30 8.38Q23.81 10.88 20.58 11.87L20.58 11.87L20.58 11.87Q17.34 12.86 13.18 12.86L13.18 12.86L13.18 12.86Q6.46 12.86 2.62 10.75L2.62 10.75L2.62 10.75Q-1.22 8.64-1.22 5.12L-1.22 5.12L-1.22 5.12Q-1.22 2.50 0.77 0.99L0.77 0.99L0.77 0.99Q2.75-0.51 5.82-0.51L5.82-0.51L5.82-0.51Q8.51-0.51 10.56 0.64L10.56 0.64L10.56 0.64Q11.78 1.34 12.35 2.24L12.35 2.24L12.35 2.24Q10.88 3.52 10.88 5.63L10.88 5.63L10.88 5.63Q10.88 8.45 13.44 8.45L13.44 8.45L13.44 8.45Q17.66 8.45 20.10-1.28L20.10-1.28L20.10-1.28Q20.80-4.16 21.44-7.23ZM60.67-17.98L60.67-17.98L60.67-17.98Q62.98-22.08 62.98-26.24L62.98-26.24L62.98-26.24Q62.98-28.99 60.99-28.99L60.99-28.99L60.99-28.99Q59.46-28.99 57.86-26.37L57.86-26.37L57.86-26.37Q56.19-23.74 55.68-20.35L55.68-20.35L52.35 0L39.10 1.28L45.63-32.64L56.19-33.92L55.04-27.46L55.04-27.46Q58.18-33.92 65.22-33.92L65.22-33.92L65.22-33.92Q68.93-33.92 70.94-32L70.94-32L70.94-32Q72.96-30.08 72.96-26.14L72.96-26.14L72.96-26.14Q72.96-22.21 70.37-19.71L70.37-19.71L70.37-19.71Q67.78-17.22 63.36-17.22L63.36-17.22L63.36-17.22Q61.44-17.22 60.67-17.98ZM93.12-22.46L93.12-22.46L93.12-22.46Q94.02-24.83 94.02-26.88L94.02-26.88L94.02-26.88Q94.02-30.66 90.94-30.66L90.94-30.66L90.94-30.66Q89.34-30.66 88.03-29.22L88.03-29.22L88.03-29.22Q86.72-27.78 86.72-25.98L86.72-25.98L86.72-25.98Q86.72-24.70 87.74-23.68L87.74-23.68L87.74-23.68Q89.22-22.27 92.99-19.97L92.99-19.97L92.99-19.97Q96.77-17.66 98.21-15.78L98.21-15.78L98.21-15.78Q99.65-13.89 99.65-11.30L99.65-11.30L99.65-11.30Q99.65-8.70 98.40-6.34L98.40-6.34L98.40-6.34Q97.15-3.97 94.91-2.30L94.91-2.30L94.91-2.30Q90.11 1.28 82.43 1.28L82.43 1.28L82.43 1.28Q78.27 1.28 75.07-0.90L75.07-0.90L75.07-0.90Q71.87-3.01 71.87-5.50L71.87-5.50L71.87-5.50Q71.87-8 73.70-9.47L73.70-9.47L73.70-9.47Q75.52-10.94 78.21-10.94L78.21-10.94L78.21-10.94Q80.90-10.94 82.56-9.92L82.56-9.92L82.56-9.92Q81.73-7.81 81.73-6.40L81.73-6.40L81.73-6.40Q81.73-2.18 85.31-2.18L85.31-2.18L85.31-2.18Q86.85-2.18 87.87-3.14L87.87-3.14L87.87-3.14Q88.90-4.10 88.90-5.76L88.90-5.76L88.90-5.76Q88.90-9.02 83.39-12.48L83.39-12.48L83.39-12.48Q78.91-15.42 77.89-16.58L77.89-16.58L77.89-16.58Q76.16-18.62 76.16-21.18L76.16-21.18L76.16-21.18Q76.16-23.74 77.38-26.18L77.38-26.18L77.38-26.18Q78.59-28.61 80.83-30.34L80.83-30.34L80.83-30.34Q85.50-33.92 93.63-33.92L93.63-33.92L93.63-33.92Q97.79-33.92 100.26-32.26L100.26-32.26L100.26-32.26Q102.72-30.59 102.72-27.78L102.72-27.78L102.72-27.78Q102.72-24.96 101.02-23.36L101.02-23.36L101.02-23.36Q99.33-21.76 96.26-21.76L96.26-21.76L96.26-21.76Q94.14-21.76 93.12-22.46Z" fill="#ccc" data-darkreader-inline-fill="" style="--darkreader-inline-fill: #35393b;"></path>
  </g>
  </g>
  <style>text {
  font-size: 64px;
  font-family: Arial Black;
  dominant-baseline: central;
  text-anchor: middle;
}</style>
</svg>